<?xml version="1.0" encoding="UTF-8" standalone="no"?>
<svg width="176px" height="42px" viewBox="0 0 176 42" version="1.1" xmlns="http://www.w3.org/2000/svg" xmlns:xlink="http://www.w3.org/1999/xlink" xmlns:sketch="http://www.bohemiancoding.com/sketch/ns">
    <!-- Generator: Sketch 3.2.2 (9983) - http://www.bohemiancoding.com/sketch -->
    <title>Logo</title>
    <desc>Created with Sketch.</desc>
    <defs></defs>
    <g id="Mobile" stroke="none" stroke-width="1" fill="none" fill-rule="evenodd" sketch:type="MSPage">
        <g id="Mobile-Portrait" sketch:type="MSArtboardGroup" transform="translate(-92.000000, -14.000000)" fill="#FFFFFF">
            <g id="Logo" sketch:type="MSLayerGroup" transform="translate(92.500000, 14.000000)">
                <path d="M145.443933,14.7571807 L145.443933,29.526 C145.443933,31.9792048 147.257895,34.0149398 149.63114,34.3863614 L149.633187,39.1095904 C149.633187,40.5416386 150.804971,41.7029639 152.250512,41.7029639 C153.697076,41.7029639 154.868348,40.5416386 154.868348,39.1095904 L154.868348,34.4475904 L159.057602,34.4475904 L159.057602,39.1116145 C159.057602,40.5426506 160.229386,41.7029639 161.674927,41.7029639 C163.121491,41.7029639 164.292763,40.5426506 164.292763,39.1116145 L164.292763,34.3863614 C166.668567,34.0149398 168.482529,31.9786988 168.482529,29.526 L168.482529,14.7571807 L145.443933,14.7571807 L145.443933,14.7571807 Z M141.777632,11.6491807 C140.331579,11.6491807 139.160307,12.809494 139.160307,14.2395181 L139.160307,25.6387229 C139.160307,27.0717831 140.331579,28.2300723 141.777632,28.2300723 C143.223684,28.2300723 144.395468,27.0717831 144.395468,25.6387229 L144.395468,14.2400241 C144.395468,12.809494 143.223684,11.6491807 141.777632,11.6491807 L141.777632,11.6491807 Z M172.05212,11.6491807 C170.606067,11.6491807 169.434795,12.809494 169.434795,14.2395181 L169.434795,25.6387229 C169.434795,27.0717831 170.606067,28.2300723 172.05212,28.2300723 C173.497661,28.2300723 174.669444,27.0717831 174.669444,25.6387229 L174.669444,14.2400241 C174.669444,12.809494 173.497661,11.6491807 172.05212,11.6491807 L172.05212,11.6491807 Z M153.822442,2.67939759 C153.312281,2.81096386 152.817471,2.97643373 152.338523,3.17479518 L150.167398,0 L149.318494,0 L150.559868,4.1013253 C147.480482,6.07785542 145.443933,9.51021687 145.443933,13.4131807 L145.447515,13.7218554 L168.533699,13.7218554 L168.539839,13.4131807 C168.539839,9.45 166.437792,5.97209639 163.278582,4.01074699 L164.491301,0 L163.644444,0 L161.509649,3.11812048 C161.056287,2.93746988 160.58655,2.78566265 160.103509,2.66371084 L160.103509,1.79587952 L153.822442,1.79587952 L153.822442,2.67939759 L153.822442,2.67939759 Z M159.789327,7.50433735 C159.789327,6.47356627 160.634649,5.63761446 161.674927,5.63761446 C162.715205,5.63761446 163.56155,6.47356627 163.56155,7.50433735 C163.56155,8.53308434 162.715716,9.36954217 161.674927,9.36954217 C160.634649,9.36954217 159.789327,8.53308434 159.789327,7.50433735 L159.789327,7.50433735 Z M150.364912,7.50433735 C150.364912,6.47356627 151.207675,5.63761446 152.250512,5.63761446 C153.290789,5.63761446 154.136623,6.47356627 154.136623,7.50433735 C154.136623,8.53308434 153.291301,9.36954217 152.250512,9.36954217 C151.207675,9.36954217 150.364912,8.53308434 150.364912,7.50433735 L150.364912,7.50433735 Z" id="Shape" sketch:type="MSShapeGroup"></path>
                <path d="M63.3105994,35.4530602 L63.3105994,10.5900723 L52.8239035,10.5900723 C47.244883,10.5900723 42.7209795,14.7273253 42.7209795,19.8315904 C42.7209795,24.9343373 47.244883,29.0715904 52.8239035,29.0715904 L56.0363304,29.0715904 L56.0363304,25.0542651 L52.8377193,25.0542651 C49.5930556,25.0542651 46.9516813,22.7968916 46.9516813,19.8315904 C46.9516813,16.8652771 49.5296053,14.6068916 52.7717105,14.6068916 L59.2789474,14.6068916 L59.2789474,35.4535663 L63.3105994,35.4535663 L63.3105994,35.4530602 Z M101.227778,28.6343855 C106.614912,28.6343855 110.386111,25.114988 110.386111,19.8179277 L110.386111,11.0267711 L106.324269,11.0267711 L106.324269,20.032988 C106.324269,23.4461205 103.907018,24.8543855 101.213962,24.8543855 L101.227778,28.6343855 Z M67.1534357,28.6343855 C72.5400585,28.6343855 76.311769,25.114988 76.311769,19.8179277 L76.311769,11.0267711 L72.2499269,11.0267711 L72.2499269,20.032988 C72.2499269,23.4461205 69.8326754,24.8543855 67.1396199,24.8543855 L67.1534357,28.6343855 Z M98.8939327,19.7364578 C98.8939327,14.4095422 95.3350877,10.6108193 89.9781433,10.6108193 L81.0884503,10.6108193 L81.0884503,14.6276386 L90.195614,14.6276386 C93.6464912,14.6276386 95.0705409,17.0180964 95.0705409,19.6813012 C95.0705409,22.342988 93.5922515,25.075012 90.1393275,25.075012 L81.0352339,25.074 L81.0352339,29.0508434 L89.9244152,29.0508434 C95.2813596,29.0508434 98.8939327,25.0608434 98.8939327,19.7364578 Z M30.653655,28.6612048 C36.0402778,28.6612048 39.8815789,25.1418072 39.8815789,19.844241 L39.8815789,11.0530843 L35.8197368,11.0530843 L35.8197368,20.0593012 C35.8197368,23.4719277 33.4029971,24.8801928 30.7094298,24.8801928 C28.0179094,24.8801928 25.2552632,23.4182892 25.2552632,20.0046506 L25.2567982,11.0009639 L21.2353801,11.0009639 L21.2353801,19.7921205 C21.2353801,25.0886747 25.2695906,28.6612048 30.653655,28.6612048 Z M17.8581871,19.7364578 C17.8581871,14.4095422 14.2993421,10.6108193 8.94239766,10.6108193 L0.0532163743,10.6108193 L0.0532163743,14.6276386 L9.16038012,14.6276386 C12.6112573,14.6276386 14.035307,17.0180964 14.035307,19.6813012 C14.035307,22.342988 12.5570175,25.075012 9.10460526,25.075012 L0,25.073494 L0,29.0503373 L8.88969298,29.0503373 C14.245614,29.0508434 17.8581871,25.0608434 17.8581871,19.7364578 Z M112.190863,4.88718072 C112.190863,7.67233735 113.68655,8.53055422 116.598099,8.53055422 L121.431579,8.53055422 L121.431579,6.34706024 L116.480409,6.34706024 C114.60402,6.34706024 114.26886,5.7560241 114.26886,4.91703614 C114.26886,4.07855422 114.540058,3.36050602 116.416447,3.36050602 L121.368129,3.36101205 L121.371199,1.35412048 L116.537208,1.35412048 C113.624635,1.35412048 112.190863,2.1020241 112.190863,4.88718072 Z M24.4078947,32.8667711 C24.4078947,34.2947711 25.5725146,35.4530602 27.0093567,35.4530602 C28.4461988,35.4530602 29.6108187,34.2947711 29.6108187,32.8667711 C29.6108187,31.4387711 28.4461988,30.2804819 27.0093567,30.2804819 C25.5725146,30.2804819 24.4078947,31.4382651 24.4078947,32.8667711 Z M31.5056287,32.8667711 C31.5056287,34.2947711 32.6702485,35.4530602 34.1070906,35.4530602 C35.5439327,35.4530602 36.7085526,34.2947711 36.7085526,32.8667711 C36.7085526,31.4387711 35.5439327,30.2804819 34.1070906,30.2804819 C32.6702485,30.2799759 31.5056287,31.4382651 31.5056287,32.8667711 Z M114.790278,10.5642651 L118.832164,10.5642651 L118.832164,29.0447711 L114.790278,29.0447711 L114.790278,10.5642651 Z" id="Shape" sketch:type="MSShapeGroup"></path>
                <path d="M129.202193,4.72120482 C129.532749,4.72120482 129.79883,4.98484337 129.79883,5.31122892 L129.79883,37.1786024 C129.79883,37.504988 129.532237,37.7686265 129.202193,37.7686265 C128.872149,37.7686265 128.605556,37.504988 128.605556,37.1786024 L128.605556,5.31122892 C128.605556,4.98484337 128.871637,4.72120482 129.202193,4.72120482 L129.202193,4.72120482 Z" id="Shape" sketch:type="MSShapeGroup"></path>
            </g>
        </g>
    </g>
</svg>